<?xml version="1.0" encoding="UTF-8"?>
<svg id="b" data-name="Layer 2" xmlns="http://www.w3.org/2000/svg" viewBox="0 0 133.04 59.53">
  <g id="c" data-name="Layer 5">
    <g>
      <polygon points="39.68 0 39.11 0 .58 0 0 0 0 .64 0 58.89 0 59.53 .58 59.53 39.11 59.53 39.68 59.53 39.68 58.89 39.68 .64 39.68 0 39.68 0" style="fill: #fff;"/>
      <g>
        <path d="M39.11,.64V58.89H.58V.64H39.11" style="fill: #231f20;"/>
        <rect x="2.52" y="2.71" width="34.38" height="9.66" style="fill: #fff;"/>
        <rect x="2.5" y="14.47" width="34.4" height="35.51" style="fill: #fff;"/>
        <g>
          <polygon points="2.51 56.79 2.51 52.07 9.41 52.07 9.41 53.18 5.28 53.18 5.28 53.85 8.78 53.85 8.78 54.95 5.28 54.95 5.28 55.69 9.57 55.69 9.57 56.79 2.51 56.79" style="fill: #fff;"/>
          <path d="M15.44,53.45c-.04-.16-.2-.26-.4-.32-.2-.06-.44-.09-.72-.09-.61,0-.88,.1-.88,.28,0,.7,4.87,.26,4.87,1.97,0,1.09-1.64,1.62-3.96,1.62s-3.69-.73-3.75-1.58h2.66c.06,.17,.22,.29,.46,.37,.22,.08,.51,.12,.79,.12,.69,0,1.15-.12,1.15-.35,0-.71-4.87-.22-4.87-2.02,0-1,1.55-1.5,3.67-1.5,2.35,0,3.42,.67,3.62,1.49h-2.64Z" style="fill: #fff;"/>
          <path d="M22.46,54.12h1.09c.86,0,1.32-.12,1.32-.45s-.47-.49-1.12-.49h-1.29v.94Zm0,1.03v1.64h-2.77v-4.71h4c2.82,0,3.75,.43,3.75,1.35,0,.54-.43,1-1.42,1.16,.89,.18,1.43,.29,1.43,1.24,0,.61-.04,.83,.29,.83v.14h-2.81c-.07-.11-.14-.41-.14-.82,0-.62-.19-.82-1.48-.82h-.85Z" style="fill: #fff;"/>
          <path d="M31.91,53.18v.79h1.16c.55,0,.95-.14,.95-.41,0-.37-.55-.38-1.13-.38h-.98Zm0,1.64v.87h1.21c.69,0,1.2-.08,1.2-.43,0-.41-.64-.44-1.53-.44h-.88Zm-2.77,1.97v-4.71h4.05c1.91,0,3.42,.26,3.42,1.19,0,.49-.57,.84-1.11,1.02,.92,.13,1.41,.57,1.41,1.08,0,1.05-1.44,1.42-3.65,1.42h-4.13Z" style="fill: #fff;"/>
        </g>
        <polygon points="5.37 23.09 31.98 16.46 34.03 23.55 25.48 25.68 31.21 45.6 21.7 47.98 15.96 28.05 7.41 30.18 5.37 23.09" style="fill: #231f20;"/>
        <g>
          <polygon points="28.82 4.8 31.08 4.8 33.7 7.79 33.61 6.54 33.61 4.8 35.92 4.8 35.92 10.27 33.66 10.27 31.04 7.29 31.08 8.58 31.13 10.27 28.82 10.27 28.82 4.8" style="fill: #231f20;"/>
          <polygon points="20.68 4.8 26.67 4.8 26.67 6.07 23.09 6.07 23.09 6.86 26.12 6.86 26.12 8.13 23.09 8.13 23.09 8.99 26.81 8.99 26.81 10.27 20.68 10.27 20.68 4.8" style="fill: #231f20;"/>
          <polygon points="12.26 4.8 18.25 4.8 18.25 6.07 14.67 6.07 14.67 6.86 17.7 6.86 17.7 8.13 14.67 8.13 14.67 8.99 18.39 8.99 18.39 10.27 12.26 10.27 12.26 4.8" style="fill: #231f20;"/>
          <polygon points="3.47 4.8 10.21 4.8 10.21 6.23 8.05 6.23 8.05 10.27 5.63 10.27 5.63 6.23 3.47 6.23 3.47 4.8" style="fill: #231f20;"/>
        </g>
      </g>
    </g>
    <g>
      <path d="M52.4,16.17v-7.16h4.83v.84h-3.88v2.22h3.36v.84h-3.36v3.25h-.95Z" style="fill: #fff;"/>
      <path d="M61.73,15.53c-.33,.28-.64,.47-.94,.59s-.62,.17-.97,.17c-.57,0-1.01-.14-1.31-.42-.31-.28-.46-.63-.46-1.07,0-.25,.06-.49,.17-.7,.12-.21,.27-.38,.45-.51s.4-.22,.63-.29c.17-.05,.43-.09,.78-.13,.71-.08,1.23-.19,1.57-.3,0-.12,0-.2,0-.23,0-.36-.08-.61-.25-.76-.22-.2-.56-.3-1-.3-.41,0-.72,.07-.92,.22-.2,.14-.34,.4-.44,.77l-.86-.12c.08-.37,.21-.67,.39-.89,.18-.23,.44-.4,.78-.52,.34-.12,.73-.18,1.18-.18s.8,.05,1.08,.16,.48,.24,.61,.39c.13,.16,.22,.36,.27,.6,.03,.15,.04,.42,.04,.81v1.17c0,.82,.02,1.33,.06,1.55,.04,.22,.11,.42,.22,.62h-.92c-.09-.18-.15-.4-.18-.64Zm-.07-1.96c-.32,.13-.8,.24-1.44,.33-.36,.05-.62,.11-.77,.18s-.27,.16-.35,.29c-.08,.12-.12,.26-.12,.42,0,.23,.09,.43,.27,.59s.44,.23,.78,.23,.64-.07,.9-.22c.26-.15,.46-.35,.58-.61,.09-.2,.14-.49,.14-.88v-.32Z" style="fill: #fff;"/>
      <path d="M63.91,16.17v-5.19h.79v.74c.38-.57,.93-.85,1.65-.85,.31,0,.6,.06,.86,.17,.26,.11,.46,.26,.59,.44s.22,.4,.27,.65c.03,.16,.05,.45,.05,.85v3.19h-.88v-3.15c0-.36-.03-.63-.1-.8-.07-.18-.19-.32-.36-.43-.17-.11-.38-.16-.61-.16-.37,0-.7,.12-.97,.36s-.41,.69-.41,1.35v2.83h-.88Z" style="fill: #fff;"/>
      <path d="M71.39,15.39l.13,.78c-.25,.05-.47,.08-.66,.08-.32,0-.57-.05-.74-.15s-.3-.23-.37-.4c-.07-.17-.11-.51-.11-1.04v-2.98h-.64v-.68h.64v-1.28l.87-.53v1.81h.88v.68h-.88v3.03c0,.25,.02,.41,.05,.48s.08,.13,.15,.17,.17,.06,.3,.06c.1,0,.23-.01,.39-.03Z" style="fill: #fff;"/>
      <path d="M75.63,15.53c-.33,.28-.64,.47-.94,.59s-.62,.17-.97,.17c-.57,0-1.01-.14-1.31-.42-.31-.28-.46-.63-.46-1.07,0-.25,.06-.49,.17-.7,.12-.21,.27-.38,.45-.51s.4-.22,.63-.29c.17-.05,.43-.09,.78-.13,.71-.08,1.23-.19,1.57-.3,0-.12,0-.2,0-.23,0-.36-.08-.61-.25-.76-.22-.2-.56-.3-1-.3-.41,0-.72,.07-.92,.22-.2,.14-.34,.4-.44,.77l-.86-.12c.08-.37,.21-.67,.39-.89,.18-.23,.44-.4,.78-.52,.34-.12,.73-.18,1.18-.18s.8,.05,1.08,.16,.48,.24,.61,.39c.13,.16,.22,.36,.27,.6,.03,.15,.04,.42,.04,.81v1.17c0,.82,.02,1.33,.06,1.55,.04,.22,.11,.42,.22,.62h-.92c-.09-.18-.15-.4-.18-.64Zm-.07-1.96c-.32,.13-.8,.24-1.44,.33-.36,.05-.62,.11-.77,.18s-.27,.16-.35,.29c-.08,.12-.12,.26-.12,.42,0,.23,.09,.43,.27,.59s.44,.23,.78,.23,.64-.07,.9-.22c.26-.15,.46-.35,.58-.61,.09-.2,.14-.49,.14-.88v-.32Z" style="fill: #fff;"/>
      <path d="M77.46,14.62l.87-.14c.05,.35,.18,.62,.41,.8s.53,.28,.94,.28,.7-.08,.9-.25c.2-.17,.29-.36,.29-.58,0-.2-.09-.35-.26-.47-.12-.08-.42-.18-.9-.3-.64-.16-1.09-.3-1.34-.42-.25-.12-.44-.28-.57-.49-.13-.21-.19-.44-.19-.7,0-.23,.05-.45,.16-.64,.11-.2,.25-.36,.43-.49,.14-.1,.32-.19,.56-.26,.24-.07,.49-.11,.76-.11,.41,0,.76,.06,1.07,.18s.53,.28,.68,.48c.15,.2,.25,.47,.3,.8l-.86,.12c-.04-.27-.15-.48-.34-.62s-.45-.22-.79-.22c-.4,0-.69,.07-.86,.2s-.26,.29-.26,.47c0,.11,.04,.22,.11,.31,.07,.09,.18,.17,.34,.23,.09,.03,.35,.11,.78,.22,.62,.17,1.06,.3,1.3,.41,.25,.11,.44,.26,.58,.46s.21,.45,.21,.75-.09,.57-.26,.83c-.17,.26-.42,.46-.74,.6-.32,.14-.69,.21-1.09,.21-.67,0-1.19-.14-1.54-.42s-.58-.7-.68-1.25Z" style="fill: #fff;"/>
      <path d="M82.77,18.17l-.1-.83c.19,.05,.36,.08,.5,.08,.2,0,.35-.03,.47-.1s.21-.16,.29-.27c.06-.09,.15-.31,.27-.65,.02-.05,.04-.12,.08-.21l-1.97-5.2h.95l1.08,3c.14,.38,.27,.78,.38,1.2,.1-.4,.22-.8,.36-1.18l1.11-3.02h.88l-1.97,5.27c-.21,.57-.38,.96-.49,1.18-.16,.29-.34,.5-.54,.64-.2,.13-.44,.2-.72,.2-.17,0-.36-.04-.57-.11Z" style="fill: #fff;"/>
      <path d="M92.74,16.17l-2.77-7.16h1.03l1.86,5.2c.15,.42,.27,.81,.38,1.17,.11-.39,.24-.78,.39-1.17l1.93-5.2h.97l-2.8,7.16h-.97Z" style="fill: #fff;"/>
      <path d="M97.08,10.02v-1.01h.88v1.01h-.88Zm0,6.15v-5.19h.88v5.19h-.88Z" style="fill: #fff;"/>
      <path d="M98.97,13.58c0-.96,.27-1.67,.8-2.13,.45-.38,.99-.58,1.63-.58,.71,0,1.3,.23,1.75,.7,.45,.47,.68,1.11,.68,1.94,0,.67-.1,1.19-.3,1.57-.2,.38-.49,.68-.87,.89s-.8,.32-1.25,.32c-.73,0-1.31-.23-1.76-.7s-.67-1.14-.67-2.01Zm.9,0c0,.66,.15,1.16,.43,1.49,.29,.33,.65,.5,1.09,.5s.8-.17,1.09-.5,.43-.84,.43-1.52c0-.64-.15-1.13-.44-1.46-.29-.33-.65-.5-1.09-.5s-.8,.16-1.09,.49-.43,.83-.43,1.49Z" style="fill: #fff;"/>
      <path d="M104.84,16.17v-7.16h.88v7.16h-.88Z" style="fill: #fff;"/>
      <path d="M110.63,14.5l.91,.11c-.14,.53-.41,.94-.8,1.24s-.88,.44-1.48,.44c-.76,0-1.36-.23-1.8-.7-.44-.47-.67-1.12-.67-1.96s.22-1.55,.67-2.03,1.03-.72,1.75-.72,1.26,.24,1.7,.71,.66,1.14,.66,1.99c0,.05,0,.13,0,.23h-3.87c.03,.57,.19,1.01,.48,1.31s.65,.45,1.08,.45c.32,0,.6-.08,.83-.25s.41-.44,.54-.81Zm-2.89-1.42h2.9c-.04-.44-.15-.76-.33-.98-.28-.34-.64-.51-1.09-.51-.4,0-.74,.13-1.02,.41s-.43,.63-.46,1.08Z" style="fill: #fff;"/>
      <path d="M112.64,16.17v-5.19h.79v.74c.38-.57,.93-.85,1.65-.85,.31,0,.6,.06,.86,.17,.26,.11,.46,.26,.59,.44s.22,.4,.27,.65c.03,.16,.05,.45,.05,.85v3.19h-.88v-3.15c0-.36-.03-.63-.1-.8-.07-.18-.19-.32-.36-.43-.17-.11-.38-.16-.61-.16-.37,0-.7,.12-.97,.36s-.41,.69-.41,1.35v2.83h-.88Z" style="fill: #fff;"/>
      <path d="M121.59,14.27l.86,.11c-.09,.6-.34,1.06-.73,1.4-.39,.34-.87,.51-1.43,.51-.71,0-1.28-.23-1.71-.7-.43-.46-.65-1.13-.65-2,0-.56,.09-1.05,.28-1.47s.47-.73,.85-.95c.38-.21,.79-.31,1.24-.31,.56,0,1.02,.14,1.38,.43,.36,.28,.59,.69,.69,1.21l-.85,.13c-.08-.35-.23-.61-.43-.79s-.46-.26-.75-.26c-.44,0-.8,.16-1.08,.48-.28,.32-.42,.82-.42,1.51s.13,1.2,.4,1.52,.62,.47,1.04,.47c.35,0,.63-.11,.86-.32s.38-.54,.44-.98Z" style="fill: #fff;"/>
      <path d="M126.75,14.5l.91,.11c-.14,.53-.41,.94-.8,1.24s-.88,.44-1.48,.44c-.76,0-1.36-.23-1.8-.7-.44-.47-.67-1.12-.67-1.96s.22-1.55,.67-2.03,1.03-.72,1.75-.72,1.26,.24,1.7,.71,.66,1.14,.66,1.99c0,.05,0,.13,0,.23h-3.87c.03,.57,.19,1.01,.48,1.31s.65,.45,1.08,.45c.32,0,.6-.08,.83-.25s.41-.44,.54-.81Zm-2.89-1.42h2.9c-.04-.44-.15-.76-.33-.98-.28-.34-.64-.51-1.09-.51-.4,0-.74,.13-1.02,.41s-.43,.63-.46,1.08Z" style="fill: #fff;"/>
      <path d="M52.31,28.17v-7.16h2.69c.55,0,.99,.07,1.32,.22,.33,.15,.59,.37,.78,.67,.19,.3,.28,.62,.28,.94,0,.31-.08,.59-.25,.86s-.42,.49-.75,.65c.43,.13,.77,.34,1,.65s.35,.67,.35,1.08c0,.33-.07,.65-.21,.93-.14,.29-.32,.51-.52,.67s-.47,.27-.78,.35c-.31,.08-.7,.12-1.15,.12h-2.73Zm.95-4.15h1.55c.42,0,.72-.03,.9-.08,.24-.07,.42-.19,.54-.36s.18-.37,.18-.62c0-.24-.06-.45-.17-.63-.11-.18-.28-.3-.49-.37-.21-.07-.57-.1-1.09-.1h-1.43v2.16Zm0,3.31h1.78c.31,0,.52-.01,.64-.03,.22-.04,.4-.1,.55-.2s.27-.22,.36-.4c.09-.17,.14-.38,.14-.6,0-.27-.07-.5-.21-.7-.14-.2-.33-.33-.57-.41-.24-.08-.59-.12-1.05-.12h-1.66v2.46Z" style="fill: #fff;"/>
      <path d="M58.89,28.17v-7.16h.88v7.16h-.88Z" style="fill: #fff;"/>
      <path d="M60.8,25.58c0-.96,.27-1.67,.8-2.13,.45-.38,.99-.58,1.63-.58,.71,0,1.3,.23,1.75,.7,.45,.47,.68,1.11,.68,1.94,0,.67-.1,1.19-.3,1.57-.2,.38-.49,.68-.87,.89s-.8,.32-1.25,.32c-.73,0-1.31-.23-1.76-.7s-.67-1.14-.67-2.01Zm.9,0c0,.66,.15,1.16,.43,1.49,.29,.33,.65,.5,1.09,.5s.8-.17,1.09-.5,.43-.84,.43-1.52c0-.64-.15-1.13-.44-1.46-.29-.33-.65-.5-1.09-.5s-.8,.16-1.09,.49-.43,.83-.43,1.49Z" style="fill: #fff;"/>
      <path d="M66.36,25.58c0-.96,.27-1.67,.8-2.13,.45-.38,.99-.58,1.63-.58,.71,0,1.3,.23,1.75,.7,.45,.47,.68,1.11,.68,1.94,0,.67-.1,1.19-.3,1.57-.2,.38-.49,.68-.87,.89s-.8,.32-1.25,.32c-.73,0-1.31-.23-1.76-.7s-.67-1.14-.67-2.01Zm.9,0c0,.66,.15,1.16,.43,1.49,.29,.33,.65,.5,1.09,.5s.8-.17,1.09-.5,.43-.84,.43-1.52c0-.64-.15-1.13-.44-1.46-.29-.33-.65-.5-1.09-.5s-.8,.16-1.09,.49-.43,.83-.43,1.49Z" style="fill: #fff;"/>
      <path d="M75.62,28.17v-.65c-.33,.51-.81,.77-1.45,.77-.41,0-.79-.11-1.14-.34s-.62-.55-.81-.96c-.19-.41-.29-.88-.29-1.41s.09-.99,.26-1.41c.17-.42,.43-.75,.78-.97s.73-.34,1.16-.34c.31,0,.59,.07,.83,.2,.24,.13,.44,.3,.6,.52v-2.57h.87v7.16h-.82Zm-2.78-2.59c0,.66,.14,1.16,.42,1.49s.61,.49,.99,.49,.71-.16,.98-.47c.27-.31,.4-.79,.4-1.44,0-.71-.14-1.23-.41-1.56s-.61-.5-1.01-.5-.72,.16-.98,.48-.39,.82-.39,1.51Z" style="fill: #fff;"/>
      <path d="M52.32,40.17v-7.16h1.43l1.69,5.07c.16,.47,.27,.83,.34,1.06,.08-.26,.21-.64,.38-1.15l1.71-4.98h1.27v7.16h-.91v-5.99l-2.08,5.99h-.85l-2.07-6.09v6.09h-.91Z" style="fill: #fff;"/>
      <path d="M60.57,34.02v-1.01h.88v1.01h-.88Zm0,6.15v-5.19h.88v5.19h-.88Z" style="fill: #fff;"/>
      <path d="M62.77,40.17v-7.16h.88v7.16h-.88Z" style="fill: #fff;"/>
      <path d="M68.37,40.17v-.65c-.33,.51-.81,.77-1.45,.77-.41,0-.79-.11-1.14-.34s-.62-.55-.81-.96c-.19-.41-.29-.88-.29-1.41s.09-.99,.26-1.41c.17-.42,.43-.75,.78-.97s.73-.34,1.16-.34c.31,0,.59,.07,.83,.2,.24,.13,.44,.3,.6,.52v-2.57h.87v7.16h-.82Zm-2.78-2.59c0,.66,.14,1.16,.42,1.49s.61,.49,.99,.49,.71-.16,.98-.47c.27-.31,.4-.79,.4-1.44,0-.71-.14-1.23-.41-1.56s-.61-.5-1.01-.5-.72,.16-.98,.48-.39,.82-.39,1.51Z" style="fill: #fff;"/>
      <path d="M73.42,40.17v-7.16h.95v6.31h3.53v.84h-4.47Z" style="fill: #fff;"/>
      <path d="M82.3,39.53c-.33,.28-.64,.47-.94,.59s-.62,.17-.97,.17c-.57,0-1.01-.14-1.31-.42-.31-.28-.46-.63-.46-1.07,0-.25,.06-.49,.17-.7,.12-.21,.27-.38,.45-.51s.4-.22,.63-.29c.17-.05,.43-.09,.78-.13,.71-.08,1.23-.19,1.57-.3,0-.12,0-.2,0-.23,0-.36-.08-.61-.25-.76-.22-.2-.56-.3-1-.3-.41,0-.72,.07-.92,.22-.2,.14-.34,.4-.44,.77l-.86-.12c.08-.37,.21-.67,.39-.89,.18-.23,.44-.4,.78-.52,.34-.12,.73-.18,1.18-.18s.8,.05,1.08,.16,.48,.24,.61,.39c.13,.16,.22,.36,.27,.6,.03,.15,.04,.42,.04,.81v1.17c0,.82,.02,1.33,.06,1.55,.04,.22,.11,.42,.22,.62h-.92c-.09-.18-.15-.4-.18-.64Zm-.07-1.96c-.32,.13-.8,.24-1.44,.33-.36,.05-.62,.11-.77,.18s-.27,.16-.35,.29c-.08,.12-.12,.26-.12,.42,0,.23,.09,.43,.27,.59s.44,.23,.78,.23,.64-.07,.9-.22c.26-.15,.46-.35,.58-.61,.09-.2,.14-.49,.14-.88v-.32Z" style="fill: #fff;"/>
      <path d="M84.47,40.17v-5.19h.79v.74c.38-.57,.93-.85,1.65-.85,.31,0,.6,.06,.86,.17,.26,.11,.46,.26,.59,.44s.22,.4,.27,.65c.03,.16,.05,.45,.05,.85v3.19h-.88v-3.15c0-.36-.03-.63-.1-.8-.07-.18-.19-.32-.36-.43-.17-.11-.38-.16-.61-.16-.37,0-.7,.12-.97,.36s-.41,.69-.41,1.35v2.83h-.88Z" style="fill: #fff;"/>
      <path d="M89.87,40.6l.85,.13c.04,.26,.14,.46,.3,.58,.22,.16,.52,.24,.89,.24,.41,0,.72-.08,.94-.24s.37-.39,.45-.68c.05-.18,.07-.55,.06-1.13-.38,.45-.86,.68-1.44,.68-.71,0-1.26-.26-1.66-.77s-.59-1.13-.59-1.85c0-.5,.09-.95,.27-1.37,.18-.42,.44-.74,.78-.97s.74-.34,1.2-.34c.61,0,1.12,.25,1.51,.74v-.62h.81v4.48c0,.81-.08,1.38-.25,1.72-.16,.34-.42,.6-.78,.8s-.79,.29-1.32,.29c-.62,0-1.12-.14-1.5-.42-.38-.28-.56-.7-.55-1.26Zm.73-3.12c0,.68,.14,1.18,.41,1.49s.61,.47,1.02,.47,.74-.16,1.02-.47c.27-.31,.41-.8,.41-1.46s-.14-1.11-.42-1.44-.62-.48-1.02-.48-.72,.16-1,.48c-.27,.32-.41,.79-.41,1.41Z" style="fill: #fff;"/>
      <path d="M98.99,40.17v-.76c-.4,.59-.95,.88-1.65,.88-.31,0-.59-.06-.86-.18s-.46-.26-.59-.44c-.13-.18-.22-.4-.27-.65-.04-.17-.05-.45-.05-.82v-3.21h.88v2.88c0,.46,.02,.77,.05,.93,.06,.23,.17,.41,.35,.54,.18,.13,.4,.2,.66,.2s.51-.07,.74-.2c.23-.14,.39-.32,.49-.55,.1-.23,.14-.57,.14-1.01v-2.78h.88v5.19h-.79Z" style="fill: #fff;"/>
      <path d="M104.54,39.53c-.33,.28-.64,.47-.94,.59s-.62,.17-.97,.17c-.57,0-1.01-.14-1.31-.42-.31-.28-.46-.63-.46-1.07,0-.25,.06-.49,.17-.7,.12-.21,.27-.38,.45-.51s.4-.22,.63-.29c.17-.05,.43-.09,.78-.13,.71-.08,1.23-.19,1.57-.3,0-.12,0-.2,0-.23,0-.36-.08-.61-.25-.76-.22-.2-.56-.3-1-.3-.41,0-.72,.07-.92,.22-.2,.14-.34,.4-.44,.77l-.86-.12c.08-.37,.21-.67,.39-.89,.18-.23,.44-.4,.78-.52,.34-.12,.73-.18,1.18-.18s.8,.05,1.08,.16,.48,.24,.61,.39c.13,.16,.22,.36,.27,.6,.03,.15,.04,.42,.04,.81v1.17c0,.82,.02,1.33,.06,1.55,.04,.22,.11,.42,.22,.62h-.92c-.09-.18-.15-.4-.18-.64Zm-.07-1.96c-.32,.13-.8,.24-1.44,.33-.36,.05-.62,.11-.77,.18s-.27,.16-.35,.29c-.08,.12-.12,.26-.12,.42,0,.23,.09,.43,.27,.59s.44,.23,.78,.23,.64-.07,.9-.22c.26-.15,.46-.35,.58-.61,.09-.2,.14-.49,.14-.88v-.32Z" style="fill: #fff;"/>
      <path d="M106.56,40.6l.85,.13c.04,.26,.14,.46,.3,.58,.22,.16,.52,.24,.89,.24,.41,0,.72-.08,.94-.24s.37-.39,.45-.68c.05-.18,.07-.55,.06-1.13-.38,.45-.86,.68-1.44,.68-.71,0-1.26-.26-1.66-.77s-.59-1.13-.59-1.85c0-.5,.09-.95,.27-1.37,.18-.42,.44-.74,.78-.97s.74-.34,1.2-.34c.61,0,1.12,.25,1.51,.74v-.62h.81v4.48c0,.81-.08,1.38-.25,1.72-.16,.34-.42,.6-.78,.8s-.79,.29-1.32,.29c-.62,0-1.12-.14-1.5-.42-.38-.28-.56-.7-.55-1.26Zm.73-3.12c0,.68,.14,1.18,.41,1.49s.61,.47,1.02,.47,.74-.16,1.02-.47c.27-.31,.41-.8,.41-1.46s-.14-1.11-.42-1.44-.62-.48-1.02-.48-.72,.16-1,.48c-.27,.32-.41,.79-.41,1.41Z" style="fill: #fff;"/>
      <path d="M115.83,38.5l.91,.11c-.14,.53-.41,.94-.8,1.24s-.88,.44-1.48,.44c-.76,0-1.36-.23-1.8-.7-.44-.47-.67-1.12-.67-1.96s.22-1.55,.67-2.03,1.03-.72,1.75-.72,1.26,.24,1.7,.71,.66,1.14,.66,1.99c0,.05,0,.13,0,.23h-3.87c.03,.57,.19,1.01,.48,1.31s.65,.45,1.08,.45c.32,0,.6-.08,.83-.25s.41-.44,.54-.81Zm-2.89-1.42h2.9c-.04-.44-.15-.76-.33-.98-.28-.34-.64-.51-1.09-.51-.4,0-.74,.13-1.02,.41s-.43,.63-.46,1.08Z" style="fill: #fff;"/>
      <path d="M57.05,45.01h.95v4.14c0,.72-.08,1.29-.24,1.71s-.46,.77-.88,1.03c-.42,.26-.98,.4-1.67,.4s-1.22-.12-1.65-.35-.73-.57-.91-1c-.18-.44-.27-1.04-.27-1.79v-4.14h.95v4.13c0,.62,.06,1.08,.17,1.38,.12,.29,.31,.52,.6,.68s.63,.24,1.03,.24c.7,0,1.19-.16,1.49-.47s.44-.92,.44-1.82v-4.13Z" style="fill: #fff;"/>
      <path d="M59.11,50.62l.87-.14c.05,.35,.18,.62,.41,.8s.53,.28,.94,.28,.7-.08,.9-.25c.2-.17,.29-.36,.29-.58,0-.2-.09-.35-.26-.47-.12-.08-.42-.18-.9-.3-.64-.16-1.09-.3-1.34-.42-.25-.12-.44-.28-.57-.49-.13-.21-.19-.44-.19-.7,0-.23,.05-.45,.16-.64,.11-.2,.25-.36,.43-.49,.14-.1,.32-.19,.56-.26,.24-.07,.49-.11,.76-.11,.41,0,.76,.06,1.07,.18s.53,.28,.68,.48c.15,.2,.25,.47,.3,.8l-.86,.12c-.04-.27-.15-.48-.34-.62s-.45-.22-.79-.22c-.4,0-.69,.07-.86,.2s-.26,.29-.26,.47c0,.11,.04,.22,.11,.31,.07,.09,.18,.17,.34,.23,.09,.03,.35,.11,.78,.22,.62,.17,1.06,.3,1.3,.41,.25,.11,.44,.26,.58,.46s.21,.45,.21,.75-.09,.57-.26,.83c-.17,.26-.42,.46-.74,.6-.32,.14-.69,.21-1.09,.21-.67,0-1.19-.14-1.54-.42s-.58-.7-.68-1.25Z" style="fill: #fff;"/>
      <path d="M68.01,50.5l.91,.11c-.14,.53-.41,.94-.8,1.24s-.88,.44-1.48,.44c-.76,0-1.36-.23-1.8-.7-.44-.47-.67-1.12-.67-1.96s.22-1.55,.67-2.03,1.03-.72,1.75-.72,1.26,.24,1.7,.71,.66,1.14,.66,1.99c0,.05,0,.13,0,.23h-3.87c.03,.57,.19,1.01,.48,1.31s.65,.45,1.08,.45c.32,0,.6-.08,.83-.25s.41-.44,.54-.81Zm-2.89-1.42h2.9c-.04-.44-.15-.76-.33-.98-.28-.34-.64-.51-1.09-.51-.4,0-.74,.13-1.02,.41s-.43,.63-.46,1.08Z" style="fill: #fff;"/>
      <path d="M72.47,49.58c0-.96,.27-1.67,.8-2.13,.45-.38,.99-.58,1.63-.58,.71,0,1.3,.23,1.75,.7,.45,.47,.68,1.11,.68,1.94,0,.67-.1,1.19-.3,1.57-.2,.38-.49,.68-.87,.89s-.8,.32-1.25,.32c-.73,0-1.31-.23-1.76-.7s-.67-1.14-.67-2.01Zm.9,0c0,.66,.15,1.16,.43,1.49,.29,.33,.65,.5,1.09,.5s.8-.17,1.09-.5,.43-.84,.43-1.52c0-.64-.15-1.13-.44-1.46-.29-.33-.65-.5-1.09-.5s-.8,.16-1.09,.49-.43,.83-.43,1.49Z" style="fill: #fff;"/>
      <path d="M78.57,52.17v-4.5h-.78v-.68h.78v-.55c0-.35,.03-.61,.09-.78,.08-.23,.23-.41,.45-.55,.21-.14,.51-.21,.9-.21,.25,0,.52,.03,.82,.09l-.13,.77c-.18-.03-.35-.05-.52-.05-.27,0-.46,.06-.57,.17s-.17,.33-.17,.64v.48h1.01v.68h-1.01v4.5h-.87Z" style="fill: #fff;"/>
      <path d="M82.69,52.17l2.75-7.16h1.02l2.93,7.16h-1.08l-.83-2.17h-2.99l-.79,2.17h-1.01Zm2.07-2.94h2.43l-.75-1.98c-.23-.6-.4-1.1-.51-1.48-.09,.46-.22,.92-.39,1.37l-.79,2.1Z" style="fill: #fff;"/>
      <path d="M90.01,52.17v-7.16h.88v7.16h-.88Z" style="fill: #fff;"/>
      <path d="M95.64,50.27l.86,.11c-.09,.6-.34,1.06-.73,1.4-.39,.34-.87,.51-1.43,.51-.71,0-1.28-.23-1.71-.7-.43-.46-.65-1.13-.65-2,0-.56,.09-1.05,.28-1.47s.47-.73,.85-.95c.38-.21,.79-.31,1.24-.31,.56,0,1.02,.14,1.38,.43,.36,.28,.59,.69,.69,1.21l-.85,.13c-.08-.35-.23-.61-.43-.79s-.46-.26-.75-.26c-.44,0-.8,.16-1.08,.48-.28,.32-.42,.82-.42,1.51s.13,1.2,.4,1.52,.62,.47,1.04,.47c.35,0,.63-.11,.86-.32s.38-.54,.44-.98Z" style="fill: #fff;"/>
      <path d="M96.93,49.58c0-.96,.27-1.67,.8-2.13,.45-.38,.99-.58,1.63-.58,.71,0,1.3,.23,1.75,.7,.45,.47,.68,1.11,.68,1.94,0,.67-.1,1.19-.3,1.57-.2,.38-.49,.68-.87,.89s-.8,.32-1.25,.32c-.73,0-1.31-.23-1.76-.7s-.67-1.14-.67-2.01Zm.9,0c0,.66,.15,1.16,.43,1.49,.29,.33,.65,.5,1.09,.5s.8-.17,1.09-.5,.43-.84,.43-1.52c0-.64-.15-1.13-.44-1.46-.29-.33-.65-.5-1.09-.5s-.8,.16-1.09,.49-.43,.83-.43,1.49Z" style="fill: #fff;"/>
      <path d="M102.82,52.17v-7.16h.88v2.57c.41-.48,.93-.71,1.55-.71,.38,0,.72,.08,1,.23,.28,.15,.49,.36,.61,.63s.18,.65,.18,1.16v3.29h-.88v-3.29c0-.44-.1-.76-.29-.96-.19-.2-.46-.3-.81-.3-.26,0-.51,.07-.73,.2-.23,.14-.39,.32-.49,.55s-.15,.55-.15,.96v2.84h-.88Z" style="fill: #fff;"/>
      <path d="M108.05,49.58c0-.96,.27-1.67,.8-2.13,.45-.38,.99-.58,1.63-.58,.71,0,1.3,.23,1.75,.7,.45,.47,.68,1.11,.68,1.94,0,.67-.1,1.19-.3,1.57-.2,.38-.49,.68-.87,.89s-.8,.32-1.25,.32c-.73,0-1.31-.23-1.76-.7s-.67-1.14-.67-2.01Zm.9,0c0,.66,.15,1.16,.43,1.49,.29,.33,.65,.5,1.09,.5s.8-.17,1.09-.5,.43-.84,.43-1.52c0-.64-.15-1.13-.44-1.46-.29-.33-.65-.5-1.09-.5s-.8,.16-1.09,.49-.43,.83-.43,1.49Z" style="fill: #fff;"/>
      <path d="M113.92,52.17v-7.16h.88v7.16h-.88Z" style="fill: #fff;"/>
    </g>
  </g>
</svg>