<?xml version="1.0" encoding="utf-8"?>
<!-- Svg Vector Icons : http://www.onlinewebfonts.com/icon -->
<!DOCTYPE svg PUBLIC "-//W3C//DTD SVG 1.1//EN" "http://www.w3.org/Graphics/SVG/1.1/DTD/svg11.dtd">
<svg version="1.1" xmlns="http://www.w3.org/2000/svg" xmlns:xlink="http://www.w3.org/1999/xlink" x="0px" y="0px" viewBox="0 0 256 256" enable-background="new 0 0 256 256" xml:space="preserve">
<metadata> Svg Vector Icons : http://www.onlinewebfonts.com/icon </metadata>
<g><g><path fill="#fff" d="M243.8,89.6c3.4-4.9,2.7-12-1.5-16c-4.2-3.9-10.4-3.1-13.8,1.8C228.1,76,191.4,128,128,128C65,128,27.9,76,27.5,75.5c-3.4-4.9-9.6-5.7-13.8-1.8c-4.2,3.9-4.9,11.1-1.5,16c0.6,0.9,6.2,8.8,16.3,18.6l-17.2,24.3l15.2,14.4l17.9-25.2c7.4,5.6,16,11.1,25.9,15.7l-9.9,31.7l18.5,7.7l10-32.1c9,2.8,18.9,4.7,29.4,5.5v34.6h19.7v-34.6c10.7-0.8,20.7-2.8,29.9-5.7l10.1,32.1l18.5-7.8l-10-31.6c9.3-4.5,17.5-9.7,24.6-15l17.7,25.3l15.3-14.3l-17.1-24.4C237.4,98.8,243.2,90.6,243.8,89.6"/></g></g>
</svg>