<svg xmlns="http://www.w3.org/2000/svg" fill="#ffd075" viewBox="0 0 644.33 573.34"><g><rect width="644.33" height="573.34" style="opacity: 0;"></rect> <path d="M545.35,347.17a6,6,0,0,1-6-6C539.35,221.41,441.92,124,322.17,124S105,221.41,105,341.17a6,6,0,0,1-12,0,229.19,229.19,0,0,1,458.37,0A6,6,0,0,1,545.35,347.17Z"></path> <path d="M439.76,347.17H204.57v-6a117.6,117.6,0,1,1,235.19,0Zm-223-12H427.59a105.6,105.6,0,0,0-210.85,0Z"></path> <path d="M322.17,570.35a6,6,0,0,1-6-6V341.17a6,6,0,0,1,12,0V564.35A6,6,0,0,1,322.17,570.35Z"></path> <path d="M351,455a6,6,0,0,1-5.79-4.45L316.37,342.72A6,6,0,1,1,328,339.61L356.84,447.4A6,6,0,0,1,351,455Z"></path> <path d="M433.76,540.45a6,6,0,0,1-5.2-3L317,344.17a6,6,0,1,1,10.39-6L439,531.45a6,6,0,0,1-5.19,9Z"></path> <path d="M401.07,426.07a6,6,0,0,1-4.24-1.75l-78.91-78.91a6,6,0,0,1,8.49-8.49l78.91,78.91a6,6,0,0,1-4.25,10.24Z"></path> <path d="M515.44,458.76a5.93,5.93,0,0,1-3-.81L319.17,346.36a6,6,0,1,1,6-10.39L518.45,447.56a6,6,0,0,1-3,11.2Z"></path> <path d="M430,376.05a6,6,0,0,1-1.56-.21L320.61,347a6,6,0,1,1,3.11-11.59l107.79,28.88a6,6,0,0,1-1.55,11.8Z"></path> <path d="M293.29,455a6,6,0,0,1-5.8-7.56l28.88-107.79A6,6,0,0,1,328,342.72L299.08,450.51A6,6,0,0,1,293.29,455Z"></path> <path d="M210.57,540.45a6,6,0,0,1-5.19-9L317,338.17a6,6,0,1,1,10.39,6L215.77,537.45A6,6,0,0,1,210.57,540.45Z"></path> <path d="M243.26,426.07A6,6,0,0,1,239,415.83l78.91-78.91a6,6,0,0,1,8.49,8.49L247.5,424.32A6,6,0,0,1,243.26,426.07Z"></path> <path d="M128.89,458.76a6,6,0,0,1-3-11.2L319.17,336a6,6,0,0,1,6,10.39L131.88,458A5.93,5.93,0,0,1,128.89,458.76Z"></path> <path d="M214.37,376.05a6,6,0,0,1-1.55-11.8l107.79-28.88A6,6,0,0,1,323.72,347L215.93,375.84A6,6,0,0,1,214.37,376.05Z"></path> <path d="M322.17,175.52a6,6,0,0,1-6-6V9a6,6,0,0,1,12,0V169.52A6,6,0,0,1,322.17,175.52Z"></path> <circle cx="322.17" cy="202.41" r="9"></circle></g></svg>