<svg data-v-d7c74e00="" fill="#ffd075" xmlns="http://www.w3.org/2000/svg" viewBox="0 0 644.33 573.34"><g data-v-d7c74e00=""><rect data-v-d7c74e00="" width="644.33" height="573.34" style="opacity: 0;"></rect> <g data-v-d7c74e00=""><path data-v-d7c74e00="" d="M322.16,322.11a3.66,3.66,0,0,1-1.87-.51,3.74,3.74,0,0,1-1.37-5.12l83-143.75a3.75,3.75,0,0,1,6.5,3.75l-83,143.75A3.75,3.75,0,0,1,322.16,322.11Z"></path> <g data-v-d7c74e00=""><path data-v-d7c74e00="" d="M417,440.67a3.7,3.7,0,0,1-2.65-1.1l-187.06-187-187,187a3.75,3.75,0,0,1-5.3-5.3L227.31,241.91,419.67,434.27a3.75,3.75,0,0,1,0,5.3A3.7,3.7,0,0,1,417,440.67Z"></path> <path data-v-d7c74e00="" d="M606.72,440.67a3.7,3.7,0,0,1-2.65-1.1L417,252.52,230,439.57a3.75,3.75,0,0,1-5.3-5.3L417,241.91,609.37,434.27a3.75,3.75,0,0,1-2.65,6.4Z"></path></g> <path data-v-d7c74e00="" d="M322.17,322.11a3.74,3.74,0,0,1-3.75-3.75v-166a3.75,3.75,0,0,1,7.5,0v166A3.75,3.75,0,0,1,322.17,322.11Z"></path> <path data-v-d7c74e00="" d="M322.17,322.11a3.76,3.76,0,0,1-2.66-6.41L378.2,257a3.75,3.75,0,1,1,5.3,5.3L324.82,321A3.74,3.74,0,0,1,322.17,322.11Z"></path> <path data-v-d7c74e00="" d="M322.17,322.11a3.76,3.76,0,0,1-3.63-4.72L340,237.22a3.75,3.75,0,0,1,7.25,1.94l-21.48,80.17A3.76,3.76,0,0,1,322.17,322.11Z"></path> <path data-v-d7c74e00="" d="M322.16,322.11a3.76,3.76,0,0,1-3.62-2.78l-21.48-80.17a3.75,3.75,0,0,1,7.25-1.94l21.48,80.17a3.76,3.76,0,0,1-3.63,4.72Z"></path> <path data-v-d7c74e00="" d="M322.17,322.11a3.78,3.78,0,0,1-2.66-1.1l-58.68-58.69a3.75,3.75,0,0,1,5.3-5.3l58.69,58.68a3.76,3.76,0,0,1-2.65,6.41Z"></path> <path data-v-d7c74e00="" d="M322.17,322.11a3.75,3.75,0,0,1-3.25-1.88l-83-143.75a3.75,3.75,0,0,1,6.5-3.75l83,143.75A3.74,3.74,0,0,1,324,321.6,3.63,3.63,0,0,1,322.17,322.11Z"></path> <path data-v-d7c74e00="" d="M322.17,156.11a11.72,11.72,0,1,1,11.72-11.72A11.73,11.73,0,0,1,322.17,156.11Zm0-15.94a4.22,4.22,0,1,0,4.22,4.22A4.23,4.23,0,0,0,322.17,140.17Z"></path> <circle data-v-d7c74e00="" cx="343.65" cy="238.19" r="3.99"></circle> <circle data-v-d7c74e00="" cx="300.68" cy="238.19" r="3.99"></circle></g></g></svg>