<svg xmlns="http://www.w3.org/2000/svg" fill="#ffd075" viewBox="0 0 644.33 573.34"><g><rect width="644.33" height="573.34" style="opacity: 0;"></rect> <g><g><polygon points="96.61 264.09 79.44 328.16 120.06 287.54 96.61 264.09"></polygon> <path d="M72.2,340.71l22.47-83.86,30.69,30.69Zm26.35-69.37L86.69,315.61l28.07-28.07Z"></path></g> <path d="M120.06,292.85,94,266.74a3.75,3.75,0,0,1,5.3-5.3l20.8,20.8L213,189.32H348.14a3.75,3.75,0,0,1,0,7.5h-132Z"></path> <g><polygon points="141.74 309.22 124.57 373.29 165.19 332.67 141.74 309.22"></polygon> <path d="M117.33,385.83,139.8,302l30.69,30.7Zm26.35-69.37-11.87,44.28,28.07-28.07Z"></path></g> <polygon points="165.19 337.97 139.09 311.87 144.39 306.57 165.19 327.37 258.11 234.45 393.26 234.45 393.26 241.95 261.21 241.95 165.19 337.97"></polygon> <g><polygon points="321.73 489.21 257.67 506.38 298.28 465.76 321.73 489.21"></polygon> <path d="M245.12,513.63l53.16-53.17,30.7,30.7Zm53.16-42.56-28.07,28.07,44.28-11.87Z"></path></g> <polygon points="319.08 491.87 292.98 465.76 389 369.74 389 237.69 396.5 237.69 396.5 372.85 303.58 465.76 324.38 486.56 319.08 491.87"></polygon> <path d="M506,345a3.75,3.75,0,0,1-2.65-6.4c61.8-61.8,61.8-162.36,0-224.16s-162.36-61.8-224.16,0a3.75,3.75,0,0,1-5.3-5.3c64.72-64.72,170-64.72,234.76,0s64.72,170,0,234.76A3.7,3.7,0,0,1,506,345Z"></path> <path d="M320.93,314.67a3.75,3.75,0,0,1-2.65-6.4L565.73,60.82a3.75,3.75,0,1,1,5.3,5.3L323.58,313.57A3.74,3.74,0,0,1,320.93,314.67Z"></path> <circle cx="444.66" cy="187.19" r="13.74"></circle></g></g></svg>