<svg xmlns="http://www.w3.org/2000/svg" viewBox="0 0 213.74 74.74">
  <g id="Layer_2" data-name="Layer 2">
    <g id="Layer_5" data-name="Layer 5">
      <g>
        <path d="M13.16.53H0V2.37H1.43A2.52,2.52,0,0,1,4,4.89V35.61l5.27,3.27.9-1a2.88,2.88,0,0,1-.5-1.27V21.84l2.52,0c1.5,0,13.92,0,13.92-11C26.06-.06,13.16.53,13.16.53m-.07,19.3H9.62V5.05c0-2.71,3.25-2.55,4-2.55,3.84,0,6.47,3.08,6.47,8.54,0,7-3.74,8.79-7,8.79" style="fill: #fff"/>
        <path d="M87.66,28.65,81.31,18c3.06-1.3,5.89-3.8,5.89-8.59C87.2-.06,74.93.53,74.93.53H61.77V2.37H63.2a2.52,2.52,0,0,1,2.52,2.52V32.35L71,35.61l.9-1a2.88,2.88,0,0,1-.5-1.27v-14h2.52c.26,0,.83,0,1.6-.07L81.46,29c3.34,4.92,5.06,6.58,9.08,6.58h6.34V33.88a11,11,0,0,1-9.22-5.23M74.86,17.41H71.39V5.05c0-2.71,3.25-2.54,4-2.54,3.84,0,6.46,3.07,6.46,8.53,0,4.24-3.73,6.37-7,6.37" style="fill: #fff"/>
        <path d="M44.79,0C36.06,0,29,8.2,29,18.32s7.08,18.32,15.81,18.32,15.82-8.2,15.82-18.32S53.53,0,44.79,0m0,34.85c-5.63,0-10.19-7.3-10.19-16.31S39.16,2.23,44.79,2.23,55,9.53,55,18.54s-4.57,16.31-10.2,16.31" style="fill: #fff"/>
        <path d="M109.4,2.48V33.39a2.88,2.88,0,0,0,.5,1.26l-.9,1-5.28-3.25V2.48h-1.61c-4.5,0-7.23,1.79-7.23,7.22v2H92.7V.53h27.71v11.2h-2.17v-2c0-5.43-2.73-7.22-7.23-7.22Z" style="fill: #fff"/>
        <path d="M179.61,25v1.46c0,5.44-2.73,7.33-7.23,7.33h-4.71a2.66,2.66,0,0,1-2.58-2.68V28.49h0V19h2.73a3.68,3.68,0,0,1,3.68,3.68v2.49h2.18V10.73h-2.18v2.53A3.69,3.69,0,0,1,167.83,17H165.1v-8h0V5.06a2.68,2.68,0,0,1,2.58-2.69h3.56c4.5,0,7.23,1.9,7.23,7.34v.48h2.18V.53H155.48V2.37h1.43a2.51,2.51,0,0,1,2.51,2.52V31.26a2.5,2.5,0,0,1-2.51,2.5h-1.43v1.85h26.3V25Z" style="fill: #fff"/>
        <path d="M152.12,35.61H140.43V33.76H142a.56.56,0,0,0,.52-.89l-9-13.08A3.08,3.08,0,0,0,132,18.62l-.81-.27V31.26a2.5,2.5,0,0,0,2.51,2.5h1.43v1.85H121.94V33.76h1.42a2.49,2.49,0,0,0,2.52-2.5V2.77a2.91,2.91,0,0,0-.49-1.27l.89-1,4.87,3.26V16.34A7.8,7.8,0,0,0,136,13.6l6.18-8.26c2.33-3.39-2.24-3.07-2.63-3.07V.53h10.85V2.27h-.14A6.55,6.55,0,0,0,145,4.89l-7.83,10.47,11.18,16.49a4.51,4.51,0,0,0,3.8,1.91Z" style="fill: #fff"/>
        <path d="M213.36,2.37h.38V.53H203.21V2.37h2a2.34,2.34,0,0,1,2.19,3.41L200.68,19.3,192.89,3.53c-.3-.58.16-1.16,1.57-1.16h1.82V.53H183.93V2.37h.47a2.37,2.37,0,0,1,2.2,1.26l10,20.16V35.61l5.27,3.27.9-1a2.91,2.91,0,0,1-.49-1.27c0-.22,0-13,0-15.14L211,3.71a2.47,2.47,0,0,1,2.32-1.34" style="fill: #fff"/>
        <path d="M152.24,64.85v1.24c0,4.6-2.31,6.21-6.13,6.21h-4A2.27,2.27,0,0,1,139.93,70V67.82h0V59.74h2.32a3.13,3.13,0,0,1,3.12,3.13V65h1.84V52.77h-1.84v2.15A3.12,3.12,0,0,1,142.26,58h-2.32V51.23h0V48a2.27,2.27,0,0,1,2.19-2.28h3c3.82,0,6.13,1.61,6.13,6.22v.41h1.84V44.13H131.79v1.56H133a2.13,2.13,0,0,1,2.13,2.13V70.18A2.12,2.12,0,0,1,133,72.3h-1.21v1.56h22.3v-9Z" style="fill: #fff"/>
        <path d="M120.55,44.13l-8,22.6-8.75-22.6h-8v1.56h1.21a2.13,2.13,0,0,1,2.13,2.14V70.15a2.13,2.13,0,0,1-2.13,2.14H95.85v1.57h8.38V72.29H103a2.15,2.15,0,0,1-2.13-2V50l9.29,23.89h1.58l8.79-24.8v22L125,73.87l.75-.83a2.48,2.48,0,0,1-.41-1.07c0-.11,0-24.14,0-24.14a2.13,2.13,0,0,1,2.13-2.14h1.21V44.13Z" style="fill: #fff"/>
        <path d="M92.69,72.3a2.15,2.15,0,0,1-1.86-1.06C88.28,64.92,81,45.34,81,45.34l-5.12-1.22-.46,1a2.42,2.42,0,0,1,.73.89l1,2.6L68.25,71.17a2,2,0,0,1-2,1.13H66v1.56h8.92V72.3H73.21a2,2,0,0,1-1.85-2.88l2.39-6.37h8.77L85.06,70a1.72,1.72,0,0,1-1.68,2.31h-.75v1.56H93.09V72.3ZM74.39,61.35l3.75-10c1.27,3.32,2.66,7,2.66,7l1.1,3Z" style="fill: #fff"/>
        <path d="M51.93,60.49v1.7H54a1.92,1.92,0,0,1,1.93,1.92v5.82c0,2.17-3.36,2.71-5.38,2.71-5,0-9-6.06-9-13.54s4-13.53,9-13.53c6,0,8.1,3.73,8.73,9v0H61V44.13h-1.7v.49a3.29,3.29,0,0,1-.72,2,12.61,12.61,0,0,0-8-2.9c-7.59,0-13.74,5.76-13.74,15.53,0,10.14,6.15,15.53,13.74,15.53a11.67,11.67,0,0,0,5.37-1.39l2.48-1.63,0,0a3,3,0,0,1,.88,2.11H61.4V63.22a1,1,0,0,1,1-1h.63v-1.7Z" style="fill: #fff"/>
        <path d="M162.82,50.28a4.39,4.39,0,0,1,4.35-4.66c3,0,6.52,3,6.52,7.69h1.84V44.13h-1.84v1.14a.66.66,0,0,1-1.11.48,8.51,8.51,0,0,0-5.75-2.07c-4.05,0-8.3,2.76-8.3,7.92,0,8.07,13.88,10.13,13.88,16.29a4.83,4.83,0,0,1-4.68,4.86c-3,0-7.28-3-7.28-9.39h-1.84v10.5h1.84l0-1.19a.45.45,0,0,1,.75-.33,11,11,0,0,0,6.56,2.4c5.61,0,9.13-3.37,9.13-7.61,0-9.73-14.09-11.38-14.09-16.85" style="fill: #fff"/>
        <polygon points="179.34 44.13 177.44 44.13 177.44 44.53 178.14 44.53 178.14 46.76 178.65 46.76 178.65 44.53 179.34 44.53 179.34 44.13" style="fill: #fff"/>
        <polygon points="181.47 44.13 180.93 45.83 180.38 44.13 179.64 44.13 179.64 46.76 180.03 46.76 180.03 44.46 180.75 46.76 181 46.76 181.73 44.45 181.73 46.76 182.22 46.76 182.22 44.13 181.47 44.13" style="fill: #fff"/>
      </g>
    </g>
  </g>
</svg>
