<svg xmlns="http://www.w3.org/2000/svg" viewBox="0 0 348.87 487.74">
  <g id="Layer_2" data-name="Layer 2">
    <g id="Layer_1-2" data-name="Layer 1">
      <g>
        <path d="M123.19,487.71a12.47,12.47,0,0,1-4.75-.88,11.17,11.17,0,0,1-3.78-2.45,10.89,10.89,0,0,1-2.49-3.88,14,14,0,0,1-.89-5.12,13.71,13.71,0,0,1,.92-5.11,11.49,11.49,0,0,1,2.53-3.9,11.11,11.11,0,0,1,3.79-2.47,12.67,12.67,0,0,1,4.7-.88,14,14,0,0,1,5.86,1.21,9.06,9.06,0,0,1,4.17,3.77l-4.91,4.05a6.35,6.35,0,0,0-2.16-2.44,5.4,5.4,0,0,0-3-.85,4.82,4.82,0,0,0-2,.43,4.9,4.9,0,0,0-1.7,1.25,6.09,6.09,0,0,0-1.17,2.09,9.3,9.3,0,0,0-.43,2.92,8.48,8.48,0,0,0,.45,2.87,6.34,6.34,0,0,0,1.2,2.09,4.82,4.82,0,0,0,1.77,1.27,5.27,5.27,0,0,0,2.11.43,4.92,4.92,0,0,0,3-.87,4.48,4.48,0,0,0,1.61-2.49h-5.39v-4.67h12v1.27a14.73,14.73,0,0,1-.89,5.34,11.18,11.18,0,0,1-2.42,3.88,9.94,9.94,0,0,1-3.65,2.35A13.22,13.22,0,0,1,123.19,487.71Z" style="fill: #fff"/>
        <path d="M143.27,463.37h8.93l7.86,24h-6.87l-1.4-4.57h-8.31l-1.37,4.57h-6.8Zm1.65,14.52h5.39L147.6,469Z" style="fill: #fff"/>
        <path d="M177.81,487.4h-3.3l-5.7-16.79V487.4H163v-24h9.2l4,12.32,4.09-12.32h9.17v24h-6V470.54Z" style="fill: #fff"/>
        <path d="M194.66,487.4v-24H213l-1.2,5.39H201.05V473h10.09v4.87H201.05v4.26h12v5.29Z" style="fill: #fff"/>
        <path d="M216.39,470.61a6.74,6.74,0,0,1,2.51-5.51,10.23,10.23,0,0,1,6.66-2,15.24,15.24,0,0,1,5.87,1.08,10.71,10.71,0,0,1,4.36,3.28l-4.15,4.29a8.66,8.66,0,0,0-2.54-2.42,6.7,6.7,0,0,0-3.71-1,3.12,3.12,0,0,0-1.84.48,1.47,1.47,0,0,0-.67,1.23,1.51,1.51,0,0,0,.6,1.17,6.47,6.47,0,0,0,2.22,1l3.43,1a12.09,12.09,0,0,1,5.49,2.93,5.71,5.71,0,0,1,1.55,3.9,7.33,7.33,0,0,1-.62,3,6.78,6.78,0,0,1-1.85,2.46,9.2,9.2,0,0,1-3.13,1.66,13.89,13.89,0,0,1-4.39.62,15.53,15.53,0,0,1-6.28-1.18,10.68,10.68,0,0,1-4.33-3.32l4.09-4.18a9.67,9.67,0,0,0,2.72,2.57,7.26,7.26,0,0,0,4,1,3.69,3.69,0,0,0,2.33-.58,1.62,1.62,0,0,0,.72-1.24,1.49,1.49,0,0,0-.58-1.2,5.36,5.36,0,0,0-1.75-.86l-4.32-1.37a10.07,10.07,0,0,1-4.88-2.85A6.09,6.09,0,0,1,216.39,470.61Z" style="fill: #fff"/>
      </g>
      <g>
        <path d="M10.34,444.19h8.25L24.73,412l6.15,32.18h8.24l10.42-50.62H41.37l-6.44,32.91-6.22-32.91H21l-6.21,32.91L8.46,393.57H0l10.34,50.62Zm35.37,0h8.1l1.8-9.47H66.9l1.8,9.47h8.39L66.9,393.57h-11L45.71,444.19Zm11.42-17.28,4.12-21.62,4.13,21.62Zm41.66,17.28h9l-8.9-21.48a15.77,15.77,0,0,0,7-13.52c0-9.83-7.67-15.62-18.52-15.62H79.77v50.62h8.17V427.78l.94-.29c1-.29,2-.65,2.89-1l7,17.71Zm-.94-35c0,4.7-3.18,7.81-8.68,9.76l-1.23.44v-18c6.58.29,9.91,3.33,9.91,7.81Zm12.44,35h7.95V412.74l13.16,31.45h8V393.57h-8V425l-13.17-31.46h-8v50.62Zm34.64,0H169v-7.81H153.1V422.06H165v-8H153.1V401.38h14.32l1.59-7.81H144.93v50.62Zm46.79,0h9l-8.9-21.48a15.77,15.77,0,0,0,7-13.52c0-9.83-7.67-15.62-18.52-15.62H172.7v50.62h8.17V427.78l.94-.29c1-.29,1.95-.65,2.89-1l7,17.71Zm-.94-35c0,4.7-3.18,7.81-8.68,9.76l-1.23.44v-18c6.58.29,9.91,3.33,9.91,7.81Zm52.57,18.37a11.49,11.49,0,0,0-8-11.43A12.36,12.36,0,0,0,240,407c0-8.17-7-13.38-17.94-13.38h-6.94v50.62h7.09c12.8,0,21.11-7,21.11-16.63Zm-11.28-20c0,3.54-2.67,6.44-7.52,7.45l-1.3.29v-14c5.5.14,8.82,2.53,8.82,6.29Zm-6.36,14.68c5.28-1.3,9.54.8,9.54,5.35,0,5.21-5,8.9-12,8.9V422.86l2.46-.58Zm40.64,21.91h9l-8.89-21.48a15.79,15.79,0,0,0,7-13.52c0-9.83-7.66-15.62-18.51-15.62h-7.67v50.62h8.17V427.78l.94-.29c1-.29,2-.65,2.9-1l7,17.71Zm-.94-35c0,4.7-3.18,7.81-8.68,9.76l-1.23.44v-18c6.58.29,9.91,3.33,9.91,7.81Zm27,35.65c9.91,0,15.91-8.53,15.91-26s-6.08-26-15.91-26-15.91,8.6-15.91,26,6,26,15.91,26Zm0-7.88c-4.7,0-7.67-5.93-7.67-18.08s3-18.15,7.67-18.15,7.66,6,7.66,18.15-3,18.08-7.66,18.08Zm17.5-4.12c2.53,8.1,7.59,11.86,14.46,11.86a13.72,13.72,0,0,0,13.67-14c0-5.57-2.46-9.83-7.66-13.67L325,413c-3.25-2.38-4.84-4.84-4.84-7.59a4.21,4.21,0,0,1,4.19-4.48c3.4,0,5.21,2.67,6.37,6.87l7-4.2c-2.38-7.45-6.87-10.56-13-10.56A12.6,12.6,0,0,0,312.06,406c0,4.48,1.73,9,6.87,12.87l6,4.49c3,2.31,5.06,4.84,5.06,8a5.31,5.31,0,0,1-5.35,5.43c-4.12,0-6.43-3-7.88-8.1l-6.8,4.12ZM344,444.63a4.85,4.85,0,1,0-4.84-4.85,4.89,4.89,0,0,0,4.84,4.85Z" style="fill: #fff"/>
        <path d="M313.88,63.61c-.37-1.5-.74-2.06-1.49-2.25l-26.93-7.1-3.74-15.34c-.18-.74-.37-1.3-1.12-1.49L252.93,30l-3.37-14.59a2.05,2.05,0,0,0-1.49-1.87L176.17.16a10.14,10.14,0,0,0-3.56,0L100.72,13.49a2,2,0,0,0-1.49,1.87L95.86,30,68.19,37.43c-.75.19-.94.75-1.13,1.49L63.32,54.26,36.4,61.36c-.75.19-1.12.75-1.5,2.25a192.73,192.73,0,0,0-3.36,36.27c0,107.71,56.09,201.2,139.86,256.92a7.39,7.39,0,0,0,3,1.5,7.41,7.41,0,0,0,3-1.5c83.76-55.72,139.86-149.21,139.86-256.92A191.9,191.9,0,0,0,313.88,63.61ZM163.93,307.26c0,.75-.75,1.12-1.5.37-20.56-23.55-34.4-52.34-43.74-83.75l-14.21,9c-3.74,2.61-6.73,1.49-9-2.62-19.06-33.65-31.4-89-32.52-127.87a6.68,6.68,0,0,1,1.87-4.86A179.43,179.43,0,0,1,81.3,80.31c1.12-1.12,2.24-.37,2.24,1.5,0,47.85,8.23,92.35,21.31,121.51,1.12,2.24,2.24,2.24,3.74,1.12l4.11-2.62c-7.85-34.77-12.33-81.13-11.21-134.6,0-1.87.37-2.61,1.49-3.36a130.84,130.84,0,0,1,18-9.35c1.87-.75,2.24-.37,2.24,1.12-1.12,77.77,5.24,131.61,19.07,174.61.37,1.12,1.5.75,1.5-.37-.75-15.71-.75-29.54-.75-46.37l-.75-134.22c0-1.5.37-2.25,1.87-2.62A147.9,147.9,0,0,1,162.8,43.3a1,1,0,0,1,1.13,1.12Zm22.43.37c-.75.75-1.5.38-1.5-.37V44.42A1,1,0,0,1,186,43.3c50.1,3.36,82.25,24.3,82.25,54.58a50.79,50.79,0,0,1-13.09,34c16.46,4.48,22.81,16.82,22.81,33.27C278,194.35,256.65,242.58,186.36,307.63Zm56.83-154.79c-7.85,0-15,3-37,18.7V256c38.13-42.63,49-71.79,49-86.74C255.15,158.83,250.29,152.84,243.19,152.84Zm3-56.08c0-15-17.2-27.29-40-28.79v78.14C235,129.29,246.18,112.46,246.18,96.76Z" style="fill: #fff"/>
      </g>
      <path d="M216.14,356.24,214,350.8h-1.67v7.46h1.16v-5.82l2.34,5.82h.67l2.35-5.82v5.82H220V350.8h-1.64ZM204.61,352h2.72v6.31h1.27V352h2.74V350.8h-6.73Z" style="fill: #fff"/>
    </g>
  </g>
</svg>
