<svg xmlns="http://www.w3.org/2000/svg" viewBox="0 0 168.22 125.89">
  <g id="Layer_2" data-name="Layer 2">
    <g id="Layer_5" data-name="Layer 5">
      <path d="M80.33,54c-.11-.14-8.2-11.4-13.35-18.64a4.51,4.51,0,0,0-.37-.69,12,12,0,0,0-1.48-1.87l-1-1.38v-.06a3.71,3.71,0,0,0-.55-.79l-.07-.09a2.64,2.64,0,0,0-.47-.89,4.87,4.87,0,0,0-.44-.67h0L61,26.75l.09-.37h0a1.9,1.9,0,0,0-.63-.9h0l-.33,0-.4-.55.08-.28v0a.57.57,0,0,0-.07-.22,4.56,4.56,0,0,0-.27-.39.51.51,0,0,0-.31-.2l-.25,0-.83-1.19,0-.46h0a6.39,6.39,0,0,0-.5-.74l-.5-.17-.65-.9h0c.08-.15.19-.39.1-.54l-.46-.8a.76.76,0,0,0-.69-.33h-.16L52.7,15.12l-.08-.34a.68.68,0,0,0-.24-.36l-.54-.4-1.26-1.88a.52.52,0,0,0-.32-.2.59.59,0,0,0-.36.09l-1.18.87a.49.49,0,0,0-.09.67l.75,1.07.11.54a.53.53,0,0,0,.32.39l.52.23,2.25,3.06v.33a.42.42,0,0,0,0,.25,2.55,2.55,0,0,0,.35.56l.13.11.56.29,1.07,1.45.25.44,0,.06.38.41.72,1V24a.6.6,0,0,0,.11.39,5.58,5.58,0,0,0,.37.48.72.72,0,0,0,.34.19l.19,0,.48.61-.07.24v0a2.42,2.42,0,0,0,.38.58h.29l.72,1,0,.5h0a1.94,1.94,0,0,0,.59.68l.37,0,.71,1,0,.18a1.52,1.52,0,0,0,.28.53,2,2,0,0,0,.59.49l.58.79a1.09,1.09,0,0,0,.44.69l.11,0,2.62,3.49,2.06,2.73a3.61,3.61,0,0,0,1.08,1.44c1.82,2.42,10.82,14.35,11.1,14.69a.74.74,0,0,0,.56.33.46.46,0,0,0,.35-.15.71.71,0,0,0,0-1m87.89,26.85H161c-2,0-4,.13-4.68,1.8-.07.17-.18.58-.18.58l2.12,2,1-2.32h4.14l-1,1.06v6.37a11.22,11.22,0,0,1-3.81.67,8.3,8.3,0,0,1-7.92-8.62c0-4.25,2.77-8.77,7.92-8.77a8.53,8.53,0,0,1,5.38,1.82,14.19,14.19,0,0,1,1.85,2.27l1.64-5.41L165,73.2a17,17,0,0,0-6.45-1.62c-7.1,0-12.06,4.46-12.06,10.85a11.18,11.18,0,0,0,3,7.76c2.41,2.59,5.87,2.94,8.93,2.94a18.48,18.48,0,0,0,7.75-1.81V85.24L168,83.1l-1.67-.28ZM25.75,72.07,27,73.4,23,85.22,18.43,73.4l1.26-1.33H12.9l1.25,1.33L10.36,86.13,8.14,81l1.64.68-3-5.76,1.88.78-2.17-4.6H0l3.8,6.56-2.06-.87,4.77,7.38-2-.83,5.33,10,1-1.43L15.77,77l6.49,17,1-1.44L29.66,73.4l1.26-1.33ZM111,80.72c0-2.42-.81-6.59-5-6.59h-3.14V86.85l-1,1h3.8c3.88,0,5.32-3.87,5.32-7.15m4.15,0c0,4.94-3,9.18-7.68,9.18H97.92L99,88.6V73.37l-1.25-1.3H107c6.23,0,8.1,4.49,8.1,8.69M70.86,85,67.7,76.32,63.88,85Zm7.62,7.67H71.93l1.25-1.34L72,87.93l.92-.89H63l-1.88,4.27,1.25,1.34H57.08l1.25-1.34,2.1-4.75L58.78,85h2.35L66.27,73.4l-1.21-1.33h6.88L70.71,73.4l6.52,17.91Zm65.4-19.25,1.25-1.33h-5l1.24,1.33V87.24L130.59,72.07h-5l1.23,1.33V91.31l-1.24,1.34h4.92l-1.24-1.35V77L140.4,92.65h4.73l-1.25-1.34ZM87.51,81.66c1.89,0,3.41-2.07,3.41-4a3.35,3.35,0,0,0-3.38-3.51H84.68v7.52ZM111,91.87s-.77,5.89-8.06,5.89A13.59,13.59,0,0,1,92.11,92.9a26.86,26.86,0,0,1-4.73-9.19h-2.7v7.6l1.24,1.34H79.59l1.26-1.35V73.4l-1.24-1.33h9.23a6.17,6.17,0,0,1,2.63.61,5.4,5.4,0,0,1,3.29,4.84c0,4.17-4.11,5.71-4.11,5.71l1.52.52a30.32,30.32,0,0,0,3.55,7.64,9.29,9.29,0,0,0,8.1,4.4c3.08,0,4.63-1.44,5-2.2l-.85-.87-2.46,1.41,1.16-2.26ZM55.86,74.82V72.07H41.55L40.83,77l2.7-2.83h8.35L41,89.79v2.86h14.9l.52-4.52L54,90.6H45.11l6.75-9.85,2.9-1.93-1-.6,3.78-2.41Zm67.64-2.75h-6.32l1.23,1.31V91.31l-1.25,1.34h6.34l-1.25-1.34V73.4Zm-85.06,0H32.13l1.23,1.31V91.31l-1.25,1.34h6.33L37.2,91.31V73.4ZM51.69,99.54l1.2,1.37-5.18,15-5.13-15.07L44,99.54H36.35l1.23,1.37-4.12,14.54L28,100.91l1.12-1.37H21.6l1.34,1.37,9.45,25,1.35-1.44L39.07,105l7.12,20.85,1.27-1.37c1.75-5,8.11-23.61,8.11-23.61l1.53-1.37ZM123.79,14l-2.93-2.1a.44.44,0,0,0-.55,0,.65.65,0,0,0-.21.6l.06.39a1.22,1.22,0,0,1-.2.89L113,24.07l0,.07-.18.61-.14.16-.72.33a.63.63,0,0,0-.37.54.62.62,0,0,0,.08.35h0l.09.14c-6.08,8.32-20,27.83-20.28,28.12s-.55.83-.15,1.07.89-.44.89-.44c5-6.29,17.93-23.75,20.91-27.77l.16.05h0a.63.63,0,0,0,.36,0,.61.61,0,0,0,.39-.52l.09-.8a.24.24,0,0,1,.1-.18l.52-.36.06,0,7.44-9.94a1.23,1.23,0,0,1,.79-.47l.38-.06a.69.69,0,0,0,.51-.4.45.45,0,0,0-.15-.53M88.92,54.05l.11.07a.5.5,0,0,0,.39,0,1.12,1.12,0,0,0,.52-.74c.17-.57.41-1.38.66-2.25.21-.69.42-1.41.62-2.09.55-1.83,2.17-6.21,3-8.57.32-.85.53-1.41.56-1.52s.06-.22.09-.33a7.72,7.72,0,0,1,.34-1.15c0-.15.13-.37.23-.64.53-1.52,1.63-4.68,2.17-6.65a4.11,4.11,0,0,1,.2-.59,3.75,3.75,0,0,0,.22-.64,4.81,4.81,0,0,1,.16-.54,5.88,5.88,0,0,0,.23-.83,2.07,2.07,0,0,1,.13-.36c.11-.25.27-.63.5-1.29s.94-2.75,1.38-4.07c.23-.7.4-1.21.43-1.28s.1-.24.21-.5c.19-.42.46-1,.81-1.87.6-1.44,1.72-4.32,2.52-6.42l.81-2.06a28.17,28.17,0,0,0,1.14-3.14A2.25,2.25,0,0,0,105.12,4c-.52-.14-.64.13-.74.35l0,.05a24.76,24.76,0,0,0-1.08,3.71,18.48,18.48,0,0,1-.48,1.85c-1.1,3.08-1.54,4.47-2,6.09-.19.61-.39,1.26-.65,2-.39,1.22-1.16,3.52-2,6-1,3.12-2.13,6.36-2.51,7.59S93.31,38.73,92,42.88c-.85,2.56-1.51,4.57-1.6,4.87-.25.8-1.28,4.24-1.51,5.09-.15.59-.24,1,.08,1.21M36.34,29.93a2.9,2.9,0,0,1,1.37.64c.39.34,1.31.68,1.68,1a6.38,6.38,0,0,0,1.52.9,1.78,1.78,0,0,1,.94.61c.18.26.79.32.79.32a5.47,5.47,0,0,0,.53.47A12,12,0,0,1,45,35c.41.41,1.68,1,2.6,1.77a12.27,12.27,0,0,0,1.95,1.36,14,14,0,0,1,1.74,1.27c.46.39,1.19.81,1.64,1.22A23.6,23.6,0,0,0,55.07,42c.75.47,1.69,1.27,2.29,1.64s1.91,1.2,2.4,1.58,2.13,1.6,3,2.11a23,23,0,0,1,2.46,1.78c.73.61,2.91,2,4.87,3.3s6.19,4.28,6.76,4.66.87.11.92,0,.12-.33-.31-.74-2.67-2-3.63-2.68-3.67-2.8-4.38-3.32L62.86,45.6c-1.08-.79-2.56-1.82-3.35-2.38s-1.84-1.29-2.76-1.87-1.5-1.27-2.79-2.11-1.82-1.51-3-2.14a10.2,10.2,0,0,1-2.16-1.63,18.66,18.66,0,0,1-2-1.4,4,4,0,0,0-1.46-.91c-.1-.28-1-.81-1.3-1s-2.26-2.24-3.16-2.95a16.47,16.47,0,0,0-2-1.22c-.35-.24-.57-.75-1.51-1.71a1.9,1.9,0,0,0-2.7.32,1.92,1.92,0,0,0-.22,2.1c.29.84,1.31,1.08,1.86,1.21m95.6-1.42-4.07,3.38a.85.85,0,0,0-.46.16,1.1,1.1,0,0,0-.25.41c-1.29.93-29.54,21.83-33,24.43a.48.48,0,0,0-.12.63.47.47,0,0,0,.68.14C98.48,55,126.54,35,128.2,33.83a.72.72,0,0,0,.8-.43l1.33-.71c.46-.24,3.69-2.26,4.34-2.58,1.55-.53,3-1.56,2.14-3.34a2,2,0,0,0-2.31-.93,1.87,1.87,0,0,0-1.25,2,2.07,2.07,0,0,1-.9.06l-.12.08,0,.16a.64.64,0,0,1-.24.4m2.8,18.7c-1.2.39-2.45.79-3.68,1.15a4.1,4.1,0,0,1-1.27.08h-.11a.83.83,0,0,1-.36-.13l-.22-.1-.18-.06-.25.4.13.13.06,0,.08.09L129,49l-.15.07-.4.11c-.18,0-.37.1-.56.17l-1,.41-1,.39c-.36.13-.75.26-1.22.4l-3.63,1c-.16,0-.33.08-.5.12l-.34.08-.51.14-.94.23a16.94,16.94,0,0,0-1.78.53c-.35.12-.7.24-1.09.35a20.36,20.36,0,0,0-2.29.87l-.4.17-2.07.9-1.31.58a19.1,19.1,0,0,1-1.85.63c-.49.15-1,.3-1.47.48-.91.35-1.87.64-2.83.93-.51.15-1,.38-1.5.51l-1,.32c-.67.19-1.36.39-2,.58l-.59.21a9.36,9.36,0,0,1-.92.27l-1,.28c-.38.09-.2,0-.51.12s-.55.18-.51.46c0,.12.14.23.54.23a11.54,11.54,0,0,0,1.16-.12c1.06-.19,2-.47,3.16-.7.46-.1,1.1-.47,1.54-.56l1.27-.27,1.19-.29c.6-.13,1.08-.43,1.6-.56a8.46,8.46,0,0,0,2.32-.68,9.66,9.66,0,0,1,2.07-.68l.55-.22.26-.11.85-.37a8.91,8.91,0,0,1,1.78-.67c.28-.07.57-.16.84-.25a5.59,5.59,0,0,1,1.42-.32,4,4,0,0,0,.5-.08l.09,0a17,17,0,0,0,1.81-.48c.55-.16,1.12-.34,1.74-.46l.73-.15c.75-.14,1.53-.3,2.29-.48.43-.1.86-.23,1.28-.36l.69-.21.42-.11a5.76,5.76,0,0,0,.68-.19c.75-.27,1.47-.57,2.15-.86l.08,0a1.18,1.18,0,0,0,.64-.44c.14-.26.33-.28.68-.31l1.05-.09c1-.08,2-.16,3-.29a14.45,14.45,0,0,0,2.29-.48c.57-.17,1.15-.37,1.71-.56s1.42-.47,2.13-.66c.94-.26,3-.7,3.89-.91l1.69-.39c.34-.08.82-.34.78-.67a.72.72,0,0,0-.27-.52.93.93,0,0,1-.36-.84.64.64,0,0,0-.47-.56h-.13a2.83,2.83,0,0,0-1.16,0c-.46.13-2,.45-2.46.54a13.06,13.06,0,0,0-2.15.55c-.87.34-1.79.62-2.68.9l-1,.32ZM25.86,48.55a1.93,1.93,0,0,0,.25.31,5.76,5.76,0,0,0,1.14.75,2.31,2.31,0,0,0,.81.33,4.1,4.1,0,0,1,.52.18,3.91,3.91,0,0,0,.85.27l.14,0a1.13,1.13,0,0,0,.89-.12,1.1,1.1,0,0,0,.32-.52c0-.12-.47.1-1-.39-.1-.1-.64-.57-.65-.68a1.88,1.88,0,0,1,.44-.81,2.39,2.39,0,0,1,.52.15,3.58,3.58,0,0,1,1.37.79,3.4,3.4,0,0,0,2.21.89,13.64,13.64,0,0,1,7.63,2,1,1,0,0,0,1,.38l.05,0,0,0a2.6,2.6,0,0,1,2-.47l8.73,2.51a14.67,14.67,0,0,0,2.23.64L75.06,60.5l.15,0a.53.53,0,0,0,.48-.3.54.54,0,0,0,0-.45.5.5,0,0,0-.33-.29c-1.23-.4-5.51-1.87-10.84-3.59a15.43,15.43,0,0,0-2-.81,14.3,14.3,0,0,0-1.84-.44C50.3,51.3,44.5,49.4,43.86,49.13s-.55-.37-.55-.38.22-.29.32-.36.25-.18.24-.33l0-.15-.12-.06A9.86,9.86,0,0,0,41,47.7c-1.92,0-8.5-.83-9.71-2.52a5.69,5.69,0,0,0-.89-1,4.5,4.5,0,0,1-.68-.7c-.75-1-2.19-1.32-2.62.18C26.73,44.82,25.28,44.85,25,46c-.13.52.36.82.58,1.26s0,.91.29,1.27m39.65-42a5.43,5.43,0,0,1,.59.28l.39.2,0,.12a2.08,2.08,0,0,0,.2.61A8.07,8.07,0,0,1,67,8.6l0,.11.56,1,.11.35.07.05.06,0a.38.38,0,0,0-.09.25,1.26,1.26,0,0,0,.43.76,12.28,12.28,0,0,1,.53,1.6,2,2,0,0,0,.1.94,7.33,7.33,0,0,1,.19.74,8.75,8.75,0,0,0,.3,1.11l.21.68a3.52,3.52,0,0,1,.15.62c0,.08,0,.41.12,1.51a.44.44,0,0,0,.15.3l.39.37a3.2,3.2,0,0,1,.26.28,1.2,1.2,0,0,0,.28.26l1.07,3.19c.64,2.11,1.4,4.55,2.17,6.91.24.73.47,1.46.71,2.19.79,2.48,1.61,5.05,2.64,7.43l4.77,14.27a.57.57,0,0,0,.71.36l.11-.06a.55.55,0,0,0,.22-.62l-4-13.46a10.78,10.78,0,0,0-.53-1.83l-.09-.21-.07-.25a5.68,5.68,0,0,0-.3-1.78c-.28-.74-.6-1.46-.87-2.06l-.31-1c-.41-1.72-.93-3.53-1.59-5.52-.19-.57-.34-1-.5-1.38l-2.16-7.15a.42.42,0,0,0,.26-.21.43.43,0,0,0,0-.37l-.57-1.82a.39.39,0,0,0-.13-.2l-.34-.31L72,15.46v-.24l0-.16-.84-2,.12-.36a.5.5,0,0,0,0-.32l-.1-.33a.48.48,0,0,0-.18-.24l-.33-.3,0,0-.24-.63L70,9.4l-.91-2.46c.25-.9.21-1,.19-1.11a1.34,1.34,0,0,1,0-.34,3.08,3.08,0,0,0,0-.42c0-.1,0-.37,0-.74A.46.46,0,0,0,69,3.89l-.42-.12-.44-.17-.36-.09a.43.43,0,0,0-.25,0l-.44.14c-.41,0-.63.14-.64.34a1.49,1.49,0,0,1-.23.33l-.46.15,0,0c-.11.06-.45.27-.49.55a4.43,4.43,0,0,0,0,.82.53.53,0,0,0,.29.65m18.6,4.22c0,.37.4.6.63.71l.1,4.47-.48.46a.75.75,0,0,0-.24.52c0,.12,0,.26,0,.41a3.3,3.3,0,0,0,.8,1.93l.06.07,0,.78a21,21,0,0,0,.14,3.35l.09,2.05a2.41,2.41,0,0,0-.56,2,1.38,1.38,0,0,0,.59.77v.13a13.35,13.35,0,0,0,0,3.4v3a2.26,2.26,0,0,0-.52,1.72,1.7,1.7,0,0,0,.4,1.18c0,.43.11.86.18,1.27l0,.26L85.27,45A3,3,0,0,0,85.4,48c0,1.09.14,5.1.14,5.14s.08.49.42.49a.53.53,0,0,0,.55-.56c.08-1.43.24-4.23.2-5.07A2.94,2.94,0,0,0,86.84,45v-.79a10.08,10.08,0,0,0,0-1.33l0-1.57a11.53,11.53,0,0,0,0-1.18l0-1.27q.06-.54.09-1.08a1.74,1.74,0,0,0,.49-1.11,2.34,2.34,0,0,0-.47-1.93V34.4a4.71,4.71,0,0,0,0-.92l-.1-5.26a1.48,1.48,0,0,0,.55-.88,2.46,2.46,0,0,0-.59-1.92l0-6.12a3.83,3.83,0,0,0,.86-2.41.71.71,0,0,0-.24-.52l-.48-.46v0a21.07,21.07,0,0,0,0-2.12l.06-2.3c.23-.11.61-.35.64-.72,0-.16.08-.68.19-1.41A1.16,1.16,0,0,0,87,8.05l-.15-2.84a1.7,1.7,0,0,0,.64-1.52,1.49,1.49,0,0,0-.88-1.18l.77-1.28V1.17c0-.09,0-.89-.5-1A4.69,4.69,0,0,0,85.8,0h-.14A2.3,2.3,0,0,0,85,.09h0l-.18,0c-.52.14-.5.94-.5,1v.06l.76,1.28a1.51,1.51,0,0,0-.88,1.18,1.72,1.72,0,0,0,.65,1.52l-.16,2.84a1.14,1.14,0,0,0-.76,1.27c.11.75.18,1.25.19,1.41M85.7,58.9a5.06,5.06,0,0,1,5,4.46v0h0a15.23,15.23,0,0,1,.12,1.81h59.55v-.62L148,62.83s-54.39,0-54.91,0A7.54,7.54,0,0,0,85.7,56.5h0a7.54,7.54,0,0,0-7.36,6.33c-.52,0-54.91,0-54.91,0L21,64.54v.62H80.56a16.6,16.6,0,0,1,.11-1.81h0v0a5.06,5.06,0,0,1,5-4.46ZM144.89,112c0-5.2-2.43-10.4-7.28-10.4H131.2v20l-1,1h5.46c4.9,0,9.21-4.4,9.21-10.66m5.06-.11A12.45,12.45,0,0,1,138,124.8H125.1l1.28-1.37V108.88l-1.54-3.2,1.62.67-2.39-4.61,2.53.2-2.09-2.4H139c6.44,0,10.95,5,10.95,12.39M121.53,122.7H112.4l1-1V100.91l1.29-1.37h-7.4l1.26,1.37v22.53l-1.27,1.36h16.1l.54-5Zm-25-16.59a4.34,4.34,0,0,0-4.13-4.42H89.7v9.41h2.73c2.7,0,4.1-2.57,4.1-5m1.72,18.69,1.27-1.37L92.38,113.2H89.7v10.23L91,124.8H83.62l1.28-1.37V100.91l-1.26-1.37H94.28c3.86,0,7.87,3.1,7,7.85l1.29,0s-2.24,2.54-2.3,2.63l.86.64h0l-4.87,2.2,1.53.54,7.07,10.08,1.26,1.37Zm-17.89-4.93a13.15,13.15,0,0,1-11.25,5.67c-7.43,0-13.79-5-13.79-13.24,0-7.19,5.46-13.15,13.79-13.1A16.63,16.63,0,0,1,78,101.79c-2.5-.93-11.06-2.59-15.29,3a12.7,12.7,0,0,0-2.32,7.46c0,6.64,4.31,11,8.7,11,3.7,0,7.1-2.69,8.09-7.81a10.35,10.35,0,0,0-2-8.16c-1.25-1.52-4.18-3-6.73-.87a2.82,2.82,0,0,0,1.63,5.19c-3.24.65-4.6-1.86-4.22-3.83s2.62-4.94,2.62-4.94l7.05.09,5.63,5.26a23.85,23.85,0,0,1,.8,2.57,12.41,12.41,0,0,1-1.61,9" style="fill: #fff"/>
    </g>
  </g>
</svg>
